<?xml version="1.0" standalone="no"?>
<!DOCTYPE svg PUBLIC "-//W3C//DTD SVG 20010904//EN"
 "http://www.w3.org/TR/2001/REC-SVG-20010904/DTD/svg10.dtd">
<svg version="1.0" xmlns="http://www.w3.org/2000/svg"
 width="2000.000000pt" height="1500.000000pt" viewBox="0 0 2000.000000 1500.000000"
 preserveAspectRatio="xMidYMid meet">

<g transform="translate(0.000000,1500.000000) scale(0.100000,-0.100000)"
fill="#000000" stroke="none">
<path d="M5910 8264 c-97 -21 -202 -77 -266 -141 -141 -144 -212 -433 -185
-758 30 -360 151 -550 395 -620 44 -13 87 -16 180 -13 113 3 126 6 194 37 39
19 77 40 83 47 15 18 26 10 44 -32 l14 -34 185 0 186 0 0 435 0 435 -285 0
-285 0 0 -170 0 -170 60 0 60 0 0 -74 0 -75 -56 -7 c-120 -15 -188 12 -218 86
-48 122 -47 443 2 540 25 48 89 80 162 80 66 0 137 -12 278 -47 57 -14 105
-24 107 -22 2 2 21 104 42 227 l39 222 -50 16 c-28 8 -102 24 -164 34 -139 24
-420 26 -522 4z"/>
<path d="M8610 8264 c-202 -54 -326 -195 -352 -401 -26 -206 37 -358 194 -464
33 -23 126 -70 206 -105 80 -35 158 -75 172 -89 24 -24 24 -27 10 -53 -14 -24
-22 -27 -79 -30 -63 -3 -217 22 -358 57 l-72 19 -5 -37 c-14 -95 -28 -363 -20
-371 5 -5 61 -19 124 -31 161 -30 487 -39 580 -15 98 25 164 60 224 116 67 63
110 143 130 242 27 132 17 229 -34 335 -55 112 -155 183 -399 284 -113 46
-151 69 -151 89 0 6 11 22 25 35 33 34 101 33 312 -3 l162 -28 6 35 c3 20 16
115 28 213 l23 176 -40 7 c-232 37 -580 47 -686 19z"/>
<path d="M2832 8213 c-37 -171 -302 -1452 -302 -1457 0 -3 109 -6 243 -6 l243
0 24 115 24 115 138 0 c134 0 138 -1 143 -22 3 -13 14 -63 24 -111 11 -49 21
-91 24 -93 2 -2 116 -3 254 -2 l250 3 -156 752 -156 753 -372 0 -371 0 -10
-47z m424 -650 c24 -131 44 -246 44 -255 0 -16 -11 -18 -94 -18 -52 0 -97 3
-99 8 -2 4 15 111 39 237 50 265 53 279 60 272 3 -3 25 -112 50 -244z"/>
<path d="M4010 7704 c0 -474 2 -565 16 -617 43 -166 139 -264 318 -324 78 -26
90 -27 291 -28 171 0 222 3 274 18 152 42 273 127 324 230 60 117 60 113 64
720 l5 557 -261 0 -260 0 -3 -512 c-3 -558 -3 -555 -59 -584 -60 -31 -143 -10
-170 43 -11 23 -15 118 -17 541 l-3 512 -260 0 -259 0 0 -556z"/>
<path d="M7011 7523 c-84 -406 -155 -746 -157 -755 -5 -17 11 -18 239 -18
l244 0 25 113 24 112 139 0 140 0 11 -55 c7 -30 17 -81 24 -112 l11 -58 256 0
255 0 -5 23 c-10 40 -307 1472 -307 1480 0 4 -168 7 -373 7 l-373 0 -153 -737z
m570 26 c25 -137 43 -251 41 -254 -3 -3 -47 -5 -99 -5 -85 0 -93 2 -93 19 0
17 49 290 81 449 6 30 14 51 17 47 4 -4 27 -119 53 -256z"/>
<path d="M9396 8098 c-4 -90 -9 -182 -12 -205 l-6 -43 171 0 171 0 0 -550 0
-550 260 0 260 0 0 550 0 550 159 0 160 0 5 53 c6 52 26 322 26 345 0 9 -140
12 -594 12 l-593 0 -7 -162z"/>
<path d="M10680 7505 l0 -755 255 0 255 0 0 755 0 755 -255 0 -255 0 0 -755z"/>
<path d="M11410 7505 l0 -755 230 0 230 0 0 300 c0 181 4 300 9 300 6 0 79
-135 163 -300 l153 -300 248 0 247 0 0 755 0 755 -230 0 -230 0 0 -311 c0
-211 -3 -310 -10 -307 -6 2 -75 141 -153 310 l-142 307 -257 1 -258 0 0 -755z"/>
<path d="M13610 7504 l0 -755 383 3 c361 4 386 6 457 27 232 70 369 218 432
466 20 79 23 115 22 290 0 175 -3 210 -22 279 -56 201 -150 320 -308 386 -125
52 -206 60 -605 60 l-359 0 0 -756z m671 340 c78 -46 99 -120 99 -349 0 -290
-40 -365 -192 -365 l-68 0 0 371 0 372 65 -5 c36 -3 78 -14 96 -24z"/>
<path d="M15070 7505 l0 -755 483 2 482 3 16 175 c9 96 14 178 12 183 -2 4
-110 7 -239 7 l-234 0 0 105 0 105 195 0 195 0 -2 173 -3 172 -192 3 -193 2 0
90 0 90 220 0 220 0 4 23 c3 12 10 87 16 167 6 80 13 160 16 178 l5 32 -501 0
-500 0 0 -755z"/>
<path d="M16130 8246 c0 -8 68 -345 150 -749 83 -403 150 -737 150 -740 0 -4
169 -7 375 -7 l375 0 5 23 c8 34 285 1473 285 1480 0 4 -119 7 -264 7 l-263 0
-6 -27 c-2 -16 -26 -223 -53 -462 -35 -316 -52 -435 -62 -438 -7 -3 -15 -4
-17 -1 -2 2 -30 211 -62 463 l-59 460 -277 3 c-237 2 -277 0 -277 -12z"/>
<path d="M13041 7100 c-83 -20 -125 -82 -125 -185 0 -89 21 -131 84 -162 38
-20 60 -23 150 -23 90 0 112 3 150 23 60 30 82 75 82 167 0 104 -40 160 -128
180 -47 11 -166 11 -213 0z"/>
</g>
</svg>
